<svg xmlns="http://www.w3.org/2000/svg" viewBox="0 0 64 64" role="img" aria-labelledby="title">
  <title>Astronauta ESDLV</title>
  <rect width="64" height="64" rx="14" fill="#25211d"/>
  <circle cx="50" cy="14" r="3" fill="#f7f1e9" opacity="0.9"/>
  <path d="M22 43c0-8 5-14 10-14s10 6 10 14v8H22z" fill="#f7f1e9"/>
  <path d="M18 43c-4-3-6-7-5-10 1-2 4-2 7 1l4 4-4 7z" fill="#8f5f43"/>
  <path d="M46 43c4-3 6-7 5-10-1-2-4-2-7 1l-4 4 4 7z" fill="#8f5f43"/>
  <circle cx="32" cy="23" r="14" fill="#f7f1e9"/>
  <path d="M22 23c0-5 4-9 10-9s10 4 10 9-4 9-10 9-10-4-10-9z" fill="#2f6f9f"/>
  <path d="M25 21c2-3 11-4 15 1" fill="none" stroke="#fffdf9" stroke-width="3" stroke-linecap="round" opacity="0.85"/>
  <path d="M27 50h10" fill="none" stroke="#8f5f43" stroke-width="4" stroke-linecap="round"/>
</svg>
